<?xml version="1.0" encoding="UTF-8"?>
<svg id="_レイヤー_1" data-name="レイヤー_1" xmlns="http://www.w3.org/2000/svg" viewBox="0 0 497.96 476.55">
  <g>
    <path d="M497.96,156.3v87.4h-31.16v232.85H149.4l-38.12-38.12v-65.98h-18.41v104.1H0V156.3h116.73l16.34,16.34,16.33-16.34h32.68c.72,1.71,1.51,3.38,2.37,5h-32.97l-14.88,14.87-3.53,3.54-3.54-3.54-14.87-14.87H5v310.25h82.87v-104.1h26.79l1.62-1.62v70.53l35.2,35.19h77.89l6.76-6.76v6.76h225.67v-232.85h31.16v-77.4h-145.2v.25l-.25-.25h-41.02c.93-1.63,1.79-3.3,2.57-5h188.9Z"/>
    <path d="M226.12,156.3s-.11.04-.17.05c-1.49.37-2.91.32-4.22-.05h4.39Z"/>
    <path d="M111.85,193.85l-7.54-7.55H30v260.25h32.87v-104.1h41.44l20.54-20.54v-115.06l-13-13ZM91.98,308.21l-6.85,6.85h-22.26v-101.36h22.26l6.85,6.84v87.67Z"/>
    <path d="M212.23,181.58c-.26-.08-.52-.18-.78-.28h.68c.06.16.09.25.1.28Z"/>
    <path d="M210.55,186.3s.02.01.03.01h.01s-.04-.01-.04-.01Z"/>
    <path d="M212.23,181.58c-.26-.08-.52-.18-.78-.28h.68c.06.16.09.25.1.28Z"/>
    <path d="M210.55,186.3s.02.01.03.01h.01s-.04-.01-.04-.01Z"/>
    <path d="M212.13,181.3h-.68c.26.1.52.2.78.28-.01-.03-.04-.12-.1-.28ZM210.55,186.3s.02.01.03.01h.01s-.04-.01-.04-.01Z"/>
    <path d="M210.55,186.3s.02.01.03.01h.01s-.04-.01-.04-.01Z"/>
    <path d="M231.13,198.42l-12.11-12.12h-8.44s-.02,0-.03,0h-48.72l-20.55,20.55v219.16l20.55,20.54h57.19l12.11-12.11,5-5,3.43-3.43v-219.16l-8.43-8.43ZM206.69,411.62l-6.85,6.85h-18.83l-6.85-6.85v-190.39l6.85-6.85h18.83l6.85,6.85v190.39Z"/>
    <path d="M277.09,181.3c-.22.1-.44.19-.66.28.01-.04.06-.13.15-.28h.51Z"/>
    <path d="M366.48,341.63l7.45,41.08,5,27.57v-81.1l-12.45,12.45ZM373.93,354.68l-2.06-11.37,2.06-2.06v13.43Z"/>
    <path d="M277.09,181.3c-.22.1-.44.19-.66.28.01-.04.06-.13.15-.28h.51Z"/>
    <path d="M276.58,181.3c-.09.15-.14.24-.15.28.22-.09.44-.18.66-.28h-.51Z"/>
    <path d="M339.55,333.21l18.15-18.15v-108.21l-20.55-20.55h-76.02v260.25h32.88v-110.95h14.04l20.2,110.95h31.85l-20.55-113.34ZM324.83,302.04l-6.85,6.85h-23.97v-95.19h23.97l6.85,6.84v81.5Z"/>
    <polygon points="467.96 186.3 467.96 213.7 436.8 213.7 436.8 446.55 403.93 446.55 403.93 213.7 372.76 213.7 372.76 186.3 467.96 186.3"/>
  </g>
  <g>
    <path d="M210.59,186.3h-.01s-.02,0-.03,0h.04Z"/>
    <path d="M212.23,181.58c-.26-.08-.52-.18-.78-.28h.68c.06.16.09.25.1.28Z"/>
    <path d="M226.12,156.3s-.11.04-.17.05c-1.49.37-2.91.32-4.22-.05h4.39Z"/>
    <path d="M277.09,181.3c-.22.1-.44.19-.66.28.01-.04.06-.13.15-.28h.51Z"/>
    <path d="M303.54,156.3c-.87,1.71-1.83,3.38-2.87,5-5.41,8.41-13.11,15.45-23.58,20h-.51c.86-1.63,5.15-10.02,7.7-20,.42-1.63.79-3.31,1.09-5,1.31-7.35,1.32-15.09-1.81-21.35-3.3,9.33-12.07,17.56-24.14,13.17-12.07-4.39,7.68-17.55-4.94-27.43-9.86-7.7-3.94-24.91-5.49-24.14-7.68,3.85-22.49,12.62-17.01,33.47,4.03,15.33,2.77,24.02-5.86,26.28h-4.39c-6.42-1.8-10.5-11.12-10.04-14.76-4,2.85-5.15,8.55-4.96,14.76.05,1.64.2,3.33.4,5,1.18,9.24,4.38,18.3,5,20h-.68c-7.66-2.96-15.56-10.06-21.31-20-.93-1.59-1.8-3.26-2.6-5-8.38-18.15-9.62-43.71,7.61-70.59-.95,1.97.41,19.59,12.15,18.52,20.41-1.85,12.07-75.71,84.49-73.51-24.15,10.42-36.21,38.4-24.15,52.66,12.08,14.27,29.63-9.87,16.46-17.55,21.01,1.68,37.51,55.17,19.44,90.47Z"/>
    <path d="M212.23,181.58c-.26-.08-.52-.18-.78-.28h.68c.06.16.09.25.1.28Z"/>
    <path d="M226.12,156.3s-.11.04-.17.05c-1.49.37-2.91.32-4.22-.05h4.39Z"/>
    <path d="M277.09,181.3c-.22.1-.44.19-.66.28.01-.04.06-.13.15-.28h.51Z"/>
    <path d="M238.02,39.49c-14.26,9.33-26.88,26.34-29.63,43.89-10.97-13.16-2.74-43.89,29.63-43.89Z"/>
    <path d="M238.02,39.49c-14.26,9.33-26.88,26.34-29.63,43.89-10.97-13.16-2.74-43.89,29.63-43.89Z"/>
    <path d="M290.69,17c11.52-7.13,14.26-13.17,14.26-17,7.13,10.42,0,19.74-14.26,17Z"/>
    <path d="M290.69,17c11.52-7.13,14.26-13.17,14.26-17,7.13,10.42,0,19.74-14.26,17Z"/>
  </g>
</svg>