<?xml version="1.0" encoding="UTF-8"?>
<svg xmlns="http://www.w3.org/2000/svg" version="1.1" viewBox="0 0 512 512">
  <defs>
    <style>
      .cls-1 {
        fill: #fff;
      }
    </style>
  </defs>
  <!-- Generator: Adobe Illustrator 28.7.1, SVG Export Plug-In . SVG Version: 1.2.0 Build 142)  -->
  <g>
    <g id="_x32_">
      <rect class="cls-1" width="512" height="512"/>
      <g>
        <polygon points="170.5 133.5 49.4 106.8 49.4 84.4 170.5 119.5 170.5 133.5"/>
        <polygon points="170.5 158.8 49.4 185.5 49.4 207.9 170.5 172.8 170.5 158.8"/>
        <polygon points="341.5 158.8 462.6 185.5 462.6 207.9 341.5 172.8 341.5 158.8"/>
        <polygon points="341.5 133.5 462.6 106.8 462.6 84.4 341.5 119.5 341.5 133.5"/>
        <path d="M323.6,450.1l-13.1-158.5,25.8-20.2v-13.6h-12.1v-42.4h8.4c6.7,0,12.1-5.4,12.1-12.2s-5.4-12.1-12.1-12.1h-17.9v-20c0-28-19.6-51.4-45.8-57.3v-37c0-7.1-5.8-12.9-12.9-12.9s-12.9,5.8-12.9,12.9v37c-26.2,5.9-45.8,29.3-45.8,57.3v20h-17.8c-6.7,0-12.2,5.4-12.2,12.1s5.4,12.2,12.2,12.2h8.3v42.4h-12.1v13.6l25.8,20.2-13.1,158.5h-35.7v25.8h206.6v-25.8h-35.7ZM256,396.2c7.1,0,12.9,5.8,12.9,12.9v16.1h-25.8v-16.1c0-7.1,5.8-12.9,12.9-12.9ZM243.1,354.2v-16.1c0-7.1,5.8-12.9,12.9-12.9s12.9,5.8,12.9,12.9v16.1h-25.8ZM293.3,215.4h18v42.4h-18v-42.4ZM280.4,257.8h-18v-42.4h18v42.4ZM243.1,163.7c0-7.1,5.8-12.9,12.9-12.9s12.9,5.8,12.9,12.9v16.1h-25.8v-16.1ZM231.6,215.4h18v42.4h-18v-42.4ZM200.7,257.8v-42.4h18v42.4h-18Z"/>
      </g>
    </g>
  </g>
</svg>